<svg width="118" height="23" viewBox="0 0 118 23" fill="none" xmlns="http://www.w3.org/2000/svg"><path d="M.07 15.615V5.155h3.374c2.197 0 3.845 1.285 3.845 3.495 0 2.211-1.622 3.547-3.845 3.547H2.136v3.418H.069zm2.066-5.372h1.203c1.046 0 1.805-.565 1.805-1.593s-.759-1.567-1.805-1.567H2.136v3.161zm29.299-1.516h1.935v6.888h-1.935V8.727zm.994-.925c-.68 0-1.203-.514-1.203-1.157a1.19 1.19 0 011.203-1.182c.68 0 1.202.514 1.202 1.182 0 .668-.523 1.157-1.203 1.157zm-3.898 3.752c0-.746-.419-1.209-1.072-1.209-.759 0-1.152.463-1.152 1.234v4.035h-1.935v-4.06c0-.746-.419-1.209-1.072-1.209-.759 0-1.151.463-1.151 1.234v4.035h-1.936V8.727h1.7l.21.9s.418-1.08 1.726-1.08c.811 0 1.49.334 1.962 1.028l.053.077.052-.077c.68-.951 1.518-1.028 2.04-1.028 1.49 0 2.511 1.105 2.511 2.673v4.395h-1.936v-4.062zm13.525 4.06V8.727h1.674l.21 1.002c.313-.642.941-1.079 1.778-1.079.183 0 .366.026.55.078v1.825a3.04 3.04 0 00-.68-.078c-.942 0-1.596.566-1.596 1.67v3.47h-1.935l-.001-.001zm-34.113 0V8.727h1.674l.21 1.002c.314-.642.941-1.079 1.779-1.079.183 0 .365.026.549.078v1.825a3.04 3.04 0 00-.68-.078c-.942 0-1.595.566-1.595 1.67v3.47H7.944v-.001zm29.954.18c-2.172 0-3.767-1.465-3.767-3.598 0-1.928 1.439-3.65 3.714-3.65 1.7 0 3.453 1.26 3.453 3.599 0 .18 0 .411-.052.669h-5.127c.183.77.889 1.284 1.753 1.284a2.49 2.49 0 001.883-.797l1.177 1.182c-.758.848-1.857 1.311-3.034 1.311zm-.105-5.577c-.811 0-1.49.463-1.648 1.208h3.244c-.157-.72-.811-1.208-1.596-1.208zm-21.739 5.577c-2.171 0-3.767-1.465-3.767-3.598 0-1.928 1.44-3.65 3.715-3.65 1.7 0 3.453 1.26 3.453 3.599 0 .18 0 .411-.052.669h-5.128c.184.77.89 1.284 1.754 1.284a2.49 2.49 0 001.883-.797l1.177 1.182c-.758.848-1.857 1.311-3.035 1.311zm-.104-5.577c-.811 0-1.491.463-1.649 1.208h3.244c-.157-.72-.81-1.208-1.595-1.208zm90.775 5.576c-1.544 0-3.428-.822-3.428-3.393V8.725h1.936v3.546c0 1.182.549 1.696 1.491 1.696.863 0 1.491-.591 1.491-1.696V8.725h1.935V12.4c0 2.57-1.91 3.393-3.427 3.393m-16.664 0c.967 0 1.753-.437 2.171-1.053l.21.873h1.7V8.726h-1.7l-.21.9c-.418-.643-1.125-1.003-2.171-1.003-1.858 0-3.48 1.62-3.48 3.546 0 1.927 1.622 3.624 3.48 3.624zm.392-5.449c1.02 0 1.805.77 1.805 1.825s-.784 1.799-1.805 1.799c-1.02 0-1.83-.797-1.83-1.799 0-1.053.784-1.825 1.83-1.825zm-12.11 5.269v-1.928h-4.5v-8.53h-2.067v10.459h6.567v-.001zm4.185.18c1.177 0 2.276-.462 3.035-1.311L84.382 13.3a2.49 2.49 0 01-1.884.797c-.863 0-1.57-.514-1.752-1.284h5.128a3.25 3.25 0 00.052-.668c0-2.34-1.753-3.598-3.454-3.598-2.276 0-3.714 1.722-3.714 3.649 0 2.133 1.596 3.598 3.767 3.598m-.104-5.577c.784 0 1.438.489 1.595 1.208h-3.244c.157-.745.837-1.208 1.649-1.208zm32.177 5.577c1.177 0 2.276-.462 3.034-1.311l-1.177-1.182a2.488 2.488 0 01-1.883.797c-.863 0-1.57-.514-1.753-1.284h5.127a3.25 3.25 0 00.052-.668c0-2.34-1.753-3.598-3.453-3.598-2.276 0-3.715 1.722-3.715 3.649 0 2.133 1.595 3.598 3.767 3.598m-.105-5.577c.785 0 1.439.489 1.596 1.208h-3.244c.156-.745.837-1.208 1.647-1.208m-15.774.128c1.02 0 1.831.77 1.831 1.825s-.811 1.799-1.831 1.799-1.83-.797-1.83-1.799c0-1.053.81-1.825 1.83-1.825zm1.726-.745c-.418-.591-1.151-.976-1.962-.976-1.988 0-3.61 1.542-3.61 3.546 0 2.005 1.57 3.624 3.558 3.624.758 0 1.439-.231 2.014-.822v.488c0 1.028-.628 1.722-2.067 1.722-.916 0-1.621-.436-2.145-.925l-1.072 1.465c.837.797 1.884 1.285 3.349 1.285a4.34 4.34 0 002.616-.848c.863-.668 1.23-1.568 1.23-2.854v-6.58h-1.701l-.209.873M53.301 1.811c.977.44 1.604.995 1.717 1.08a74.882 74.882 0 01-.355-2.183c.57.389 1.891 1.29 2.325 1.582.177-.536.79-2.287.79-2.287s1.108 1.763 1.297 2.05c.232-.238 1.557-1.686 1.9-2.053.058.833.136 2.026.154 2.205.068-.09.576-.787 1.426-1.432-.37.713-.545 1.698-.623 2.49a9.899 9.899 0 00-2.63-.354 9.838 9.838 0 00-4.805 1.243c-.258-.762-.662-1.713-1.197-2.34h.001zm10.182 9.925l-.002-1.227s-.557-.177-1.154-.63c-1.196.177-2.646 1.36-2.646 1.36s.49.912 1.025 1.896c.942.127 2.328-1.04 2.775-1.4h.002zm1.204 2.225s-.095-.507-.505-.982l-.933.023s-1.259 1.063-2.027 1.087c0 0 .424.774.636 1.177.424-.09 1.167-.419 1.466-.76 0 0 .198.628.16 1.367.42-.24 1.001-.889 1.204-1.913v.001zm.384-4.033c-.47.39-.87.605-.87.605l.004 1.233c.338.37.67.675.919 1.232.471-.833.382-2.061-.053-3.07zm.103-1.098l.073-.56c.025-.309-.055-.82-.495-1.35-.545-.602-1.916-1.57-2.57-1.801 0 0-.054.62-.28.918-1.302-.924-1.942-1.155-1.942-1.155-1.43.2-2.35.743-2.849 1.169l.436.364c-.862.26-1.422.989-1.422.989.005.013.77.12.77.12s-.078.882 1.046 1.435c.962.473 2.347-.114 3.65.4-.857-.973-1.447-1.408-1.447-1.408s-.341-.07-.581-.068c-.3.002-.745.06-1.235-.127a4.66 4.66 0 01-.72-.38s.602-.607 1.48-.742c0 0 .793.22 1.422.676.417-.4.853-.387.853-.387s-.432.397-.301.877c.628.55 1.308 1.336 1.308 1.336.694-.374 2.2-.288 2.51.065-.392-.5-.957-.917-1.395-1.274-.052-.187-.53-.841-.61-.9 0 0 .454.137.858.494a1.11 1.11 0 01.632-.403c.306.252.36.638.351.702a.988.988 0 01-.272.227l.734.78.073-.56m.658 1.017c1.12 2.032 1.391 4.466.614 6.89a282.95 282.95 0 00-.884-.967c-.155 2.371-.866 4.213-2.939 5.768 0 0-.197-.745-.313-1.21-3.418 2.46-6.357 1.335-7.183.93.64-2.882.144-4.537-.284-5.799-.91 1.469-1.842 2.61-2.772 3.38-.636-1.459-.684-4.17-.17-5.772-.17.045-1.175.357-1.732.523.224-1.47 1.212-3.44 2.257-4.42-.182-.032-.718-.106-1.142-.176.26-.522 1.018-1.491 2.18-2.4-.034.64.208 1.405.945 1.773-.467-.806-.524-1.801-.037-2.317.49-.519 1.31-.34 1.835.063a1.692 1.692 0 00-.62-.818c1.447-.662 3.203-1.045 5.194-.743.307.263.635.633.817.862a3.259 3.259 0 00-.07-.72c.815.19 1.665.496 2.546.944-1.568-1.537-4.748-2-7.4-1.254-.622.176-1.212.407-1.768.68-.585.007-.961.358-1.176.67-1.698 1.106-2.943 2.562-3.542 3.782.133.028.535.077.907.14-.759 1.063-1.75 3.076-1.686 4.883.173-.051 1.1-.33 1.554-.475-.243 1.594-.172 4.272.88 5.803 1.325-.922 2.094-1.891 2.733-2.766.164.787.324 2.186-.24 4.505.458.348 3.78 2.062 7.539-.178l.314 1.217.406-.26c2.287-1.46 3.165-3.431 3.472-5.037.106.114.521.562.671.71.574-1.538 1.721-5.237-.909-8.21l.003-.001z" fill="#fff"/></svg>